<svg xmlns="http://www.w3.org/2000/svg" width="64" height="62" stroke="#000" stroke-linecap="round" stroke-linejoin="round" fill="#fff" fill-rule="evenodd"><path d="M4.0615 14.47c-5.66 8.14-4.96 18.728-.632 27.4.1.208.21.412.316.616l.2.39c.04.076.084.15.126.224.074.14.15.268.226.404l.414.708.236.388.48.75.204.316.694 1 .1361.184c.2061.2834.4168.5634.6319.84l.24.304.5841.72.2239.268a40.393 40.393 0 0 0 .814.93c.028.03.0401.04.048.052l.828.872.2661.268.6599.648.27.26c.2971.2801.5991.5548.906.824l.992.84.34.272.686.536.366.28.77.552.36.254c.246.17.496.332.7481.494l.3239.216a41.47 41.47 0 0 0 1.1701.716l.3239.2.88.492c.16.086.3241.168.486.25l.628.326.1461.07.26.124.9959.46.21.094a35.559 35.559 0 0 0 1.1621.482l.2799.112 1.0961.406.1399.048 1.22.4.296.088c.4001.126.832.28 1.26.356 27.388 4.994 35.34-16.46 35.34-16.46-6.68 8.704-18.54 11-29.8 8.444-.426-.096-.8399-.228-1.254-.352l-.312-.094c-.4048-.1245-.8076-.2558-1.208-.394l-.166-.06-1.064-.394-.3-.12a30.229 30.229 0 0 1-1.1499-.48l-.2301-.1-.97-.452-.2799-.134c-.2521-.12-.5001-.254-.7501-.4l-.5-.26c-.304-.16-.6-.332-.9-.504l-.304-.17c-.3937-.2325-.7838-.4712-1.17-.716-.1059-.068-.2099-.14-.316-.21l-.832-.554c-.092-.06-.2-.128-.268-.188l-.788-.57-.35-.264-.7099-.556-.3161-.254-.884-.746a1.476 1.476 0 0 0-.0999-.08l-.9301-.846-.26-.252-.6639-.66-.2601-.26c-.28-.286-.552-.574-.8-.868-.014-.014-.028-.028-.04-.044-.2832-.3108-.5605-.6269-.832-.948l-.1999-.26-.6-.74-.2001-.274-.692-.92c-6.276-8.504-8.52-20.26-3.532-29.9m13.16-1.25c-4.096 5.894-3.874 13.8-.6799 20.016a26.098 26.098 0 0 0 1.8119 3.024c.614.88 1.2941 1.926 2.108 2.632.296.326.604.64.92.954l.24.24a26.925 26.925 0 0 0 .938.872c.014.01.0241.024.04.034.364.32.732.6 1.106.916l.248.194a26.959 26.959 0 0 0 1.148.838l.034.024c.172.12.348.23.524.346.084.054.164.112.2481.164.2795.1794.5629.3528.8499.52l.12.07.752.4c.088.05.2.092.2681.14l.5259.272c.026.014.054.024.08.036.3608.1797.7263.3497 1.0961.51l.2399.1c.2979.1265.598.2478.9.364l.384.14c.2739.0995.5493.1949.8261.286l.3739.12c.394.12.8.28 1.194.346 21.146 3.504 26.028-12.8 26.028-12.8-4.4 6.34-12.92 9.36-22.016 7-.402-.1058-.8014-.2211-1.1979-.346-.1201-.036-.2401-.076-.3601-.116l-.8399-.288-.4001-.14c-.3019-.1165-.6019-.2378-.9-.364l-.244-.1a25.189 25.189 0 0 1-1.1039-.512l-.5541-.28-.32-.164c-.2353-.1278-.4687-.2591-.6999-.394l-.1681-.094a24.755 24.755 0 0 1-.848-.52c-.0859-.054-.17-.114-.2559-.17l-.5501-.364c-.3873-.2685-.7675-.5472-1.14-.836l-.26-.2c-4-3.144-7.136-7.44-8.6359-12.308-1.5721-5.05-1.234-10.72 1.49-15.32m11.464-.366c-2.4121 3.57-2.652 7.966-.9761 11.89 1.7661 4.166 5.386 7.432 9.612 9l.524.2.232.072.7541.2c11.6759 2.256 14.8399-5.992 15.6859-7.206-2.7739 3.994-7.4359 4.952-13.1559 3.564-.4521-.11-.9481-.274-1.3841-.428-.5596-.1983-1.1083-.426-1.644-.682-1.0166-.4889-1.982-1.0778-2.8819-1.758C38.0735 13.46 34.8935 6.032 38.2335 0" fill-rule="nonzero" stroke="none" fill="#7f00ff"/></svg>